<svg xmlns="http://www.w3.org/2000/svg" viewBox="0 0 140 120" fill="none">
  <!-- clipboard -->
  <rect x="30" y="20" width="78" height="96" rx="10" fill="#FFFFFF" stroke="#E4ECF8" stroke-width="2"/>
  <rect x="56" y="12" width="26" height="16" rx="6" fill="#A78BFA"/>
  <rect x="62" y="8" width="14" height="10" rx="4" fill="#C4B5FD"/>
  <!-- checklist rows -->
  <g>
    <circle cx="46" cy="44" r="6" fill="#5FC489"/>
    <path d="M43 44 L45.5 46.5 L49 42.5" stroke="#FFFFFF" stroke-width="1.6" fill="none" stroke-linecap="round" stroke-linejoin="round"/>
    <rect x="58" y="41" width="40" height="5" rx="2.5" fill="#D7E3F4"/>
    <circle cx="46" cy="66" r="6" fill="#5FC489"/>
    <path d="M43 66 L45.5 68.5 L49 64.5" stroke="#FFFFFF" stroke-width="1.6" fill="none" stroke-linecap="round" stroke-linejoin="round"/>
    <rect x="58" y="63" width="34" height="5" rx="2.5" fill="#D7E3F4"/>
    <circle cx="46" cy="88" r="6" fill="#CBD5E1"/>
    <rect x="58" y="85" width="40" height="5" rx="2.5" fill="#E2EAF5"/>
  </g>
  <!-- plant -->
  <g>
    <path d="M120 120 L120 100 C112 100 112 90 120 93 C117 85 127 85 127 95 C135 90 137 100 127 103 L127 120 Z" fill="#5FC489"/>
    <rect x="113" y="110" width="20" height="12" rx="3" fill="#C6E7D6"/>
  </g>
</svg>
